<?xml version="1.0" encoding="utf-8"?>
<!-- Generator: Adobe Illustrator 25.2.1, SVG Export Plug-In . SVG Version: 6.00 Build 0)  -->
<svg version="1.1" id="Layer_1" xmlns="http://www.w3.org/2000/svg" xmlns:xlink="http://www.w3.org/1999/xlink" x="0px" y="0px"
	 viewBox="0 0 30 30" style="enable-background:new 0 0 30 30;" xml:space="preserve">
<style type="text/css">
	.st0{fill:#26B6EB;}
</style>
<path class="st0" d="M1.6,16.9c0,0.9,0.2,1.7,0.7,2.5s1,1.4,1.8,1.8c0.8,0.4,1.6,0.7,2.5,0.7h10.8c0.9,0,1.7-0.2,2.5-0.7
	s1.4-1,1.8-1.8c0.4-0.8,0.7-1.6,0.7-2.5c0-0.7-0.1-1.3-0.4-2c0.8-0.9,1.1-2,1.1-3.3c0-0.7-0.1-1.4-0.4-2s-0.6-1.2-1.1-1.7
	c-0.5-0.5-1-0.9-1.7-1.1c-0.6-0.3-1.3-0.4-2-0.4c-1.5,0-2.8,0.6-3.9,1.7c-0.8-0.4-1.7-0.7-2.7-0.7c-1.4,0-2.6,0.4-3.7,1.3
	s-1.8,2-2.1,3.4c-1.1,0.3-2,0.8-2.7,1.7S1.6,15.8,1.6,16.9z M3.3,16.9c0-0.8,0.3-1.6,0.8-2.2c0.6-0.6,1.3-1,2.1-1.1l0.5,0
	c0.1,0,0.2-0.1,0.2-0.2L7,12.9c0.1-1.1,0.6-2,1.4-2.7c0.8-0.7,1.7-1.1,2.8-1.1c1.1,0,2.1,0.4,2.9,1.1c0.8,0.7,1.3,1.6,1.4,2.7
	l0.1,0.6c0,0.1,0.1,0.2,0.2,0.2h1.6c0.9,0,1.6,0.3,2.3,1c0.6,0.6,1,1.4,1,2.3c0,0.9-0.3,1.7-1,2.3c-0.6,0.6-1.4,1-2.3,1H6.5
	c-0.9,0-1.6-0.3-2.3-1C3.6,18.6,3.3,17.8,3.3,16.9z M10,4.6c0,0.2,0.1,0.4,0.2,0.6l0.7,0.6c0.2,0.2,0.5,0.3,0.6,0.2
	c0.2,0,0.4-0.1,0.6-0.3s0.2-0.4,0.2-0.6S12.2,4.8,12,4.7L11.4,4c-0.2-0.2-0.4-0.2-0.6-0.2c-0.2,0-0.4,0.1-0.6,0.3
	C10.1,4.2,10,4.4,10,4.6z M15.3,9.1c0.7-0.7,1.5-1,2.4-1c1,0,1.8,0.3,2.5,1s1,1.5,1,2.5c0,0.6-0.2,1.2-0.5,1.8c-1-1-2.1-1.4-3.5-1.4
	H17C16.8,10.9,16.2,9.9,15.3,9.1z M16.9,3.8c0,0.3,0.1,0.5,0.2,0.6s0.4,0.2,0.6,0.2c0.3,0,0.5-0.1,0.6-0.2c0.2-0.2,0.2-0.4,0.2-0.6
	V1.7c0-0.2-0.1-0.4-0.2-0.6S18,0.9,17.8,0.9c-0.2,0-0.4,0.1-0.6,0.2s-0.2,0.4-0.2,0.6V3.8z M22.5,6.1c0,0.3,0.1,0.5,0.2,0.6
	c0.2,0.2,0.4,0.2,0.6,0.2c0.2,0,0.4-0.1,0.6-0.2l1.4-1.4c0.2-0.2,0.2-0.4,0.2-0.6c0-0.2-0.1-0.4-0.2-0.6c-0.2-0.2-0.4-0.2-0.6-0.2
	c-0.2,0-0.4,0.1-0.6,0.2l-1.5,1.4C22.5,5.6,22.5,5.8,22.5,6.1z M23.2,17.9c0,0.2,0.1,0.5,0.2,0.6l0.6,0.6c0.1,0.2,0.3,0.2,0.6,0.2
	s0.4-0.1,0.6-0.2s0.2-0.4,0.2-0.6c0-0.2-0.1-0.4-0.2-0.6l-0.6-0.6c-0.2-0.2-0.4-0.2-0.6-0.2c-0.2,0-0.4,0.1-0.6,0.2
	C23.3,17.5,23.2,17.7,23.2,17.9z M24.7,11.6c0,0.2,0.1,0.4,0.3,0.6c0.2,0.2,0.4,0.2,0.6,0.2h2c0.2,0,0.4-0.1,0.6-0.2
	s0.2-0.4,0.2-0.6s-0.1-0.4-0.2-0.6s-0.4-0.2-0.6-0.2h-2c-0.2,0-0.4,0.1-0.6,0.2C24.8,11.2,24.7,11.4,24.7,11.6z"/>
</svg>
